<svg width="36" height="36" viewBox="0 0 36 36" fill="none" xmlns="http://www.w3.org/2000/svg">
<path d="M24.75 0C18.5378 0 13.5 5.03775 13.5 11.25C13.5 11.9543 13.5653 12.6427 13.689 13.311L0 27V33.75C0 34.992 1.008 36 2.25 36H4.5V33.75H9V29.25H13.5V24.75H18L20.9205 21.8295C22.1153 22.2615 23.4067 22.5 24.75 22.5C30.9622 22.5 36 17.4622 36 11.25C36 5.03775 30.9622 0 24.75 0ZM28.1205 11.2545C26.2575 11.2545 24.7455 9.7425 24.7455 7.8795C24.7455 6.0165 26.2575 4.5045 28.1205 4.5045C29.9835 4.5045 31.4955 6.0165 31.4955 7.8795C31.4955 9.7425 29.9835 11.2545 28.1205 11.2545Z" fill="#455A64"/>
</svg>
